<?xml version="1.0" encoding="utf-8"?>
<!-- Generator: Adobe Illustrator 26.0.0, SVG Export Plug-In . SVG Version: 6.00 Build 0)  -->
<svg version="1.1" id="Layer_1" xmlns="http://www.w3.org/2000/svg" xmlns:xlink="http://www.w3.org/1999/xlink" x="0px" y="0px"
	 viewBox="0 0 1060.96 623.59" style="enable-background:new 0 0 1060.96 623.59;" xml:space="preserve">
<style type="text/css">
	.st0{fill:#FFC907;}
</style>
<g>
	<g>
		<path class="st0" d="M123.67,365.13c-7.62,0-14.63-2.01-21.03-6.02c-6.4-4.02-11.5-9.87-15.31-17.56
			c-3.81-7.69-5.72-16.91-5.72-27.66c0-10.48,1.63-21.1,4.9-31.85c3.27-10.75,7.76-20.99,13.48-30.73
			c5.72-9.73,12.25-18.41,19.6-26.03c7.35-7.62,15.14-13.64,23.38-18.07c8.23-4.42,16.5-6.64,24.81-6.64
			c5.99,0,10.75,1.12,14.29,3.37c3.54,2.25,6.09,5.21,7.66,8.88c1.56,3.67,2.35,7.62,2.35,11.84c0,4.77-0.85,9.53-2.55,14.29
			c-1.7,4.77-4.02,8.71-6.94,11.84c-2.93,3.13-6.16,4.7-9.7,4.7c-1.63,0-3.13-0.48-4.49-1.43c-1.36-0.95-2.72-2.72-4.08-5.31
			c2.04-1.36,4.32-3.74,6.84-7.15c2.52-3.4,4.73-7.18,6.63-11.33c1.9-4.15,2.86-7.86,2.86-11.13c0-2.72-0.85-5-2.55-6.84
			c-1.7-1.84-4.53-2.76-8.47-2.76c-6.13,0-12.42,2.28-18.89,6.84c-6.47,4.56-12.63,10.62-18.48,18.17
			c-5.85,7.55-11.13,15.99-15.82,25.32c-4.7,9.32-8.41,18.85-11.13,28.58c-2.72,9.73-4.08,18.96-4.08,27.66
			c0,12.39,2.69,22.02,8.06,28.89c5.38,6.87,11.81,10.31,19.29,10.31c5.58,0,10.72-1.77,15.41-5.31c4.7-3.54,8.85-8.2,12.45-13.99
			c3.61-5.78,6.5-12.08,8.68-18.89c2.18-6.8,3.54-13.48,4.08-20.01c-3.4-0.68-6.91-1.19-10.51-1.53c-3.61-0.34-7.39-0.51-11.33-0.51
			c-2.18,0-4.36,0.03-6.53,0.1c-2.18,0.07-4.49,0.17-6.94,0.31c1.23-4.76,3.16-8.27,5.82-10.52c2.65-2.25,6.16-3.37,10.51-3.37
			c4.08,0,8.2,0.65,12.35,1.94c4.15,1.3,8.37,2.69,12.66,4.19c4.29,1.5,8.47,2.72,12.56,3.68l-2.04,6.33
			c-2.45,7.49-4.46,13.71-6.02,18.68c-1.57,4.97-2.76,9.19-3.57,12.66c-0.82,3.47-1.36,6.6-1.63,9.39
			c-0.27,2.79-0.41,5.68-0.41,8.68c0,2.72,0.07,5.55,0.21,8.47c0.13,2.93,0.27,6.5,0.41,10.72c-4.08-0.54-7.11-1.74-9.08-3.57
			c-1.97-1.84-3.27-3.98-3.88-6.43c-0.61-2.45-0.92-4.83-0.92-7.15c0-0.68,0-1.36,0-2.04c0-0.68,0.07-1.36,0.2-2.04
			c-4.77,5.85-10.24,10.65-16.43,14.39C138.4,363.26,131.43,365.13,123.67,365.13z"/>
		<path class="st0" d="M230.04,352.68c-5.04,0-9.12-1.33-12.25-3.98c-3.13-2.65-4.7-6.23-4.7-10.72c0-3.81,0.95-7.89,2.86-12.25
			c1.9-4.35,3.84-8.64,5.82-12.86c1.97-4.22,2.96-7.96,2.96-11.23c0-3.13-1.02-5.75-3.06-7.86c-2.04-2.11-4.43-3.84-7.15-5.21
			c-3,7.49-6.36,14.74-10.11,21.74c-3.75,7.01-6.77,12.49-9.08,16.44l-3.06-5.92c1.9-3.54,4.42-8.58,7.55-15.11
			c3.13-6.53,6.13-13.81,8.98-21.85c-1.36-1.36-2.04-3.2-2.04-5.51c0-3.54,1.09-6.87,3.27-10c2.18-3.13,4.29-4.7,6.33-4.7
			c1.63,0,2.82,0.92,3.57,2.76c0.75,1.84,1.12,3.1,1.12,3.78c0,0.68-0.31,1.91-0.92,3.67c-0.61,1.77-1.06,3.06-1.33,3.88
			c0.13,1.5,1.33,2.96,3.57,4.39c2.24,1.43,4.8,3.1,7.66,5c2.86,1.91,5.38,4.29,7.56,7.15c2.18,2.86,3.27,6.47,3.27,10.82
			c0,3.95-0.89,7.96-2.66,12.05c-1.77,4.08-3.54,7.9-5.31,11.43c-1.77,3.54-2.66,6.6-2.66,9.19c0,1.91,0.51,3.16,1.53,3.78
			c1.02,0.61,2.21,0.92,3.57,0.92c3.27,0,6.67-0.99,10.21-2.96c3.54-1.97,7.01-4.52,10.41-7.66c3.4-3.13,6.4-6.43,8.98-9.9
			c2.58-3.47,4.56-6.64,5.92-9.49l4.9,3.67c-2.59,5.85-6.33,11.61-11.23,17.25c-4.9,5.65-10.34,10.28-16.33,13.88
			C242.22,350.87,236.17,352.68,230.04,352.68z"/>
		<path class="st0" d="M277.81,356.96c-4.49,0-8.41-1.5-11.74-4.49c-3.33-3-5-7.48-5-13.48c0-4.76,1.09-9.93,3.27-15.52
			c2.18-5.58,5.17-11.09,8.98-16.54c3.81-5.44,8.17-10.38,13.07-14.8c4.9-4.42,10.14-7.99,15.72-10.72
			c5.58-2.72,11.16-4.08,16.74-4.08c5.85,0,10.82,1.5,14.9,4.49c4.08,2.99,6.13,6.94,6.13,11.84c0,3.67-1.3,6.33-3.88,7.96
			c-2.59,1.63-5.65,2.11-9.19,1.43c0.27-1.23,0.51-2.45,0.71-3.68c0.2-1.22,0.31-2.52,0.31-3.88c0-2.72-0.55-5.17-1.63-7.35
			c-1.09-2.18-3.4-3.27-6.94-3.27c-3.81,0-7.69,1.3-11.64,3.88c-3.95,2.59-7.73,5.96-11.33,10.11c-3.61,4.15-6.84,8.71-9.7,13.68
			c-2.86,4.97-5.1,9.84-6.74,14.6c-1.63,4.77-2.45,9.05-2.45,12.86c0,4.36,1.56,6.53,4.7,6.53c3.13,0,6.6-1.53,10.41-4.59
			c3.81-3.06,7.66-6.91,11.53-11.54c3.88-4.63,7.59-9.36,11.13-14.19c3.54-4.83,6.6-8.95,9.19-12.35c0.41-0.68,0.95-1.02,1.63-1.02
			c0.54,0.14,1.6,0.44,3.16,0.92c1.56,0.48,3.03,1.19,4.39,2.14c1.36,0.95,2.04,2.18,2.04,3.67c0,1.36-0.58,3.1-1.74,5.21
			c-1.16,2.11-2.52,4.42-4.08,6.94c-1.57,2.52-2.93,5.04-4.08,7.55c-1.16,2.52-1.74,4.94-1.74,7.25c0,1.77,0.48,3.44,1.43,5
			c0.95,1.57,2.52,2.35,4.69,2.35c3.27,0,7.86-2.41,13.78-7.25c5.92-4.83,11.94-13.03,18.07-24.6l3.88,3.88
			c-3.27,7.35-7.18,13.85-11.74,19.5c-4.56,5.65-9.36,10.07-14.39,13.27c-5.04,3.2-10.14,4.8-15.31,4.8
			c-5.58,0-9.73-1.77-12.45-5.31c-2.72-3.54-4.22-7.35-4.49-11.43c0-0.27,0-0.48,0-0.61c0-0.13,0-0.27,0-0.41
			c-5.44,6.53-10.45,11.7-15.01,15.52C287.85,355.06,282.99,356.96,277.81,356.96z"/>
		<path class="st0" d="M373.36,353.49c-5.99,0-10.48-1.77-13.47-5.31c-2.99-3.54-4.49-7.83-4.49-12.86c0-3.13,0.54-7.08,1.63-11.84
			c1.09-4.76,2.62-9.76,4.59-15.01c1.97-5.24,4.25-10.17,6.84-14.8c2.58-4.63,5.38-8.4,8.37-11.33c2.99-2.93,5.99-4.39,8.98-4.39
			c1.63,0,3.06,0.51,4.29,1.53c1.23,1.02,1.84,2.48,1.84,4.39c0,1.77-1.06,4.42-3.16,7.96c-2.11,3.54-4.56,7.62-7.35,12.25
			c-2.79,4.63-5.24,9.43-7.35,14.39c-2.11,4.97-3.16,9.7-3.16,14.19c0,4.36,0.78,7.25,2.35,8.68c1.56,1.43,3.84,2.14,6.84,2.14
			c4.62,0,9.66-2.31,15.11-6.94c5.44-4.63,11.09-12.72,16.95-24.3l3.06,3.27c-4.77,11.98-10.82,21.3-18.17,27.97
			C389.69,350.16,381.8,353.49,373.36,353.49z M397.45,261.41c-2.59,0-4.93-0.64-7.04-1.94c-2.11-1.29-3.16-3.3-3.16-6.02
			c0-3.27,1.77-6.05,5.31-8.37c3.54-2.31,7.21-3.47,11.03-3.47c2.45,0,4.52,0.55,6.23,1.63c1.7,1.09,2.55,3.06,2.55,5.92
			s-1.57,5.61-4.7,8.27C404.53,260.09,401.13,261.41,397.45,261.41z"/>
		<path class="st0" d="M475.65,351.45c-5.31,0-9.36-1.33-12.15-3.98c-2.79-2.65-4.19-6.02-4.19-10.11c0-2.72,0.48-5.61,1.43-8.68
			c0.95-3.06,1.9-6.16,2.86-9.29c0.95-3.13,1.43-6.12,1.43-8.98c0-2.99-0.71-5.07-2.14-6.23c-1.43-1.15-3.1-1.74-5-1.74
			c-4.08,0-8.27,1.67-12.56,5c-4.29,3.34-8.44,7.52-12.45,12.56c-4.02,5.04-7.79,10.28-11.33,15.72c-3.54,5.45-6.6,10.35-9.19,14.7
			c-2.59,0-5.04-0.44-7.35-1.33c-2.31-0.89-4.29-2.41-5.92-4.59c0.14-0.68,0.92-2.76,2.35-6.23c1.43-3.47,3.03-7.62,4.8-12.45
			c1.77-4.83,3.33-9.9,4.7-15.21c1.36-5.31,2.04-10.14,2.04-14.5c0.95-1.09,2.41-2.18,4.39-3.27c1.97-1.09,4.05-1.63,6.23-1.63
			c4.76,0,7.15,2.04,7.15,6.12c0,1.63-0.31,4.05-0.92,7.25c-0.61,3.2-1.46,6.84-2.55,10.92c3.54-4.76,7.42-9.25,11.64-13.48
			c4.22-4.22,8.61-7.66,13.17-10.31c4.56-2.65,9.15-3.98,13.78-3.98c5.85,0,10.17,1.98,12.96,5.92c2.79,3.95,4.19,8.3,4.19,13.07
			c0,4.08-0.68,7.9-2.04,11.43c-1.36,3.54-2.69,6.88-3.98,10c-1.3,3.13-1.94,6.19-1.94,9.19c0,2.18,0.51,3.71,1.53,4.59
			c1.02,0.89,2.14,1.33,3.37,1.33c3.27,0,6.67-1.56,10.21-4.7c3.54-3.13,6.91-7.11,10.11-11.94c3.2-4.83,6.02-9.7,8.47-14.6
			l3.47,2.86c-2.86,6.67-6.09,12.76-9.7,18.27c-3.61,5.51-7.62,9.94-12.05,13.27C486.02,349.78,481.09,351.45,475.65,351.45z"/>
	</g>
	<g>
		<path class="st0" d="M588.55,367.3c-7.62,0-14.63-2.01-21.03-6.02c-6.4-4.02-11.5-9.87-15.31-17.56
			c-3.81-7.69-5.72-16.91-5.72-27.66c0-10.48,1.63-21.1,4.9-31.85c3.27-10.75,7.76-20.99,13.48-30.73
			c5.72-9.73,12.25-18.41,19.6-26.03c7.35-7.62,15.14-13.64,23.38-18.07c8.23-4.42,16.5-6.64,24.81-6.64
			c5.99,0,10.75,1.12,14.29,3.37c3.54,2.25,6.09,5.21,7.66,8.88c1.56,3.67,2.35,7.62,2.35,11.84c0,4.77-0.85,9.53-2.55,14.29
			c-1.7,4.77-4.02,8.71-6.94,11.84c-2.93,3.13-6.16,4.7-9.7,4.7c-1.63,0-3.13-0.48-4.49-1.43c-1.36-0.95-2.72-2.72-4.08-5.31
			c2.04-1.36,4.32-3.74,6.84-7.15c2.52-3.4,4.73-7.18,6.64-11.33c1.9-4.15,2.86-7.86,2.86-11.13c0-2.72-0.85-5-2.55-6.84
			c-1.7-1.84-4.53-2.76-8.47-2.76c-6.13,0-12.42,2.28-18.89,6.84c-6.47,4.56-12.63,10.62-18.48,18.17
			c-5.85,7.55-11.13,15.99-15.82,25.32c-4.7,9.32-8.41,18.85-11.13,28.58c-2.72,9.73-4.08,18.96-4.08,27.66
			c0,12.39,2.69,22.02,8.06,28.89c5.38,6.87,11.81,10.31,19.29,10.31c5.58,0,10.72-1.77,15.41-5.31c4.7-3.54,8.85-8.2,12.45-13.99
			c3.61-5.78,6.5-12.08,8.68-18.89c2.18-6.8,3.54-13.48,4.08-20.01c-3.4-0.68-6.91-1.19-10.51-1.53c-3.61-0.34-7.39-0.51-11.33-0.51
			c-2.18,0-4.36,0.03-6.53,0.1c-2.18,0.07-4.49,0.17-6.94,0.31c1.23-4.76,3.16-8.27,5.82-10.52c2.65-2.25,6.16-3.37,10.51-3.37
			c4.08,0,8.2,0.65,12.35,1.94c4.15,1.3,8.37,2.69,12.66,4.19c4.29,1.5,8.47,2.72,12.56,3.68l-2.04,6.33
			c-2.45,7.49-4.46,13.71-6.02,18.68c-1.57,4.97-2.76,9.19-3.57,12.66c-0.82,3.47-1.36,6.6-1.63,9.39
			c-0.27,2.79-0.41,5.68-0.41,8.68c0,2.72,0.07,5.55,0.21,8.47c0.13,2.93,0.27,6.5,0.41,10.72c-4.08-0.54-7.11-1.74-9.08-3.57
			c-1.97-1.84-3.27-3.98-3.88-6.43c-0.61-2.45-0.92-4.83-0.92-7.15c0-0.68,0-1.36,0-2.04c0-0.68,0.07-1.36,0.2-2.04
			c-4.77,5.85-10.24,10.65-16.43,14.39C603.28,365.43,596.3,367.3,588.55,367.3z"/>
		<path class="st0" d="M676.95,355.67c-6.4,0-10.86-2.14-13.37-6.43c-2.52-4.29-3.78-9.36-3.78-15.21c0-6.67,1.22-14.5,3.67-23.48
			c2.45-8.98,5.68-18.41,9.7-28.28c4.01-9.87,8.44-19.53,13.27-28.99c4.83-9.46,9.7-18,14.6-25.62c4.9-7.62,9.42-13.71,13.58-18.27
			c4.15-4.56,7.52-6.84,10.11-6.84c1.77,0,3.27,0.92,4.49,2.76c1.23,1.84,2.21,4.02,2.96,6.53c0.75,2.52,1.12,4.87,1.12,7.04
			c0,3.67-0.92,8.47-2.76,14.39c-1.84,5.92-4.43,12.42-7.76,19.5c-3.34,7.08-7.28,14.33-11.84,21.74
			c-4.56,7.42-9.6,14.46-15.11,21.13c-5.51,6.67-11.4,12.45-17.66,17.35c-0.54,3.4-1.06,6.77-1.53,10.11
			c-0.48,3.34-0.71,6.36-0.71,9.09c0,4.9,0.82,8.47,2.45,10.72c1.63,2.25,3.74,3.37,6.33,3.37c3.4,0,6.91-1.6,10.51-4.8
			c3.6-3.2,7.07-7.28,10.41-12.25c3.33-4.97,6.23-10.11,8.68-15.41l4.9,2.65c-5.85,12.12-12.39,21.68-19.6,28.68
			C692.39,352.16,684.84,355.67,676.95,355.67z M681.85,300.34c4.62-5.03,9.02-10.51,13.17-16.44c4.15-5.92,7.96-11.94,11.43-18.07
			c3.47-6.12,6.5-12.05,9.08-17.76c2.58-5.72,4.59-10.85,6.02-15.41c1.43-4.56,2.21-8.2,2.35-10.92c0-0.13,0-0.24,0-0.31
			c0-0.07,0-0.17,0-0.31c-1.09,0-2.83,1.53-5.21,4.59c-2.38,3.06-5.21,7.25-8.47,12.56c-3.27,5.31-6.63,11.37-10.11,18.17
			c-3.47,6.81-6.81,13.99-10,21.54C686.92,285.54,684.16,292.99,681.85,300.34z"/>
		<path class="st0" d="M725.54,356.08c-6.26,0-10.89-1.87-13.88-5.61c-2.99-3.74-4.49-8.34-4.49-13.78c0-7.08,1.26-13.68,3.78-19.8
			c2.52-6.13,5.72-11.67,9.6-16.64c3.88-4.97,8.06-9.22,12.56-12.76c4.49-3.54,8.74-6.26,12.76-8.17c4.01-1.9,7.32-2.86,9.9-2.86
			c0.68,0,1.63,0.14,2.86,0.41c1.23,0.27,2.11,0.95,2.66,2.04c0.41-0.27,0.85-0.48,1.33-0.61c0.48-0.13,0.99-0.2,1.53-0.2
			c3.81,0,6.29,1.09,7.45,3.27c1.15,2.18,1.74,4.56,1.74,7.15c0,2.32-0.65,4.97-1.94,7.96c-1.3,2.99-2.59,6.3-3.88,9.9
			c-1.3,3.61-1.94,7.73-1.94,12.35c0,2.45,0.71,4.32,2.14,5.61c1.43,1.3,3.09,1.94,5,1.94c5.31,0,9.66-1.19,13.07-3.57
			c3.4-2.38,6.19-5.54,8.37-9.49c2.18-3.95,4.01-8.27,5.51-12.96c1.5-4.7,2.93-9.36,4.29-13.99c-1.23-1.5-1.84-3.2-1.84-5.1
			c0-2.99,0.61-5.61,1.84-7.86c1.22-2.25,2.62-4.01,4.19-5.31c1.56-1.29,2.82-1.94,3.78-1.94c2.18,0,3.47,0.82,3.88,2.45
			c0.41,1.63,0.61,2.93,0.61,3.88c0,0.68-0.38,1.91-1.12,3.67c-0.75,1.77-1.12,3-1.12,3.67c0,1.36,1.12,2.76,3.37,4.19
			c2.25,1.43,4.8,3.1,7.66,5c2.86,1.91,5.41,4.32,7.66,7.25c2.25,2.93,3.37,6.57,3.37,10.92c0,4.08-0.82,8.17-2.45,12.25
			c-1.63,4.08-3.27,7.9-4.9,11.43c-1.63,3.54-2.45,6.6-2.45,9.19c0,2.04,0.51,3.37,1.53,3.98c1.02,0.61,2.21,0.92,3.57,0.92
			c3.13,0,6.43-0.99,9.9-2.96c3.47-1.97,6.84-4.52,10.11-7.66c3.27-3.13,6.19-6.43,8.78-9.9c2.58-3.47,4.49-6.63,5.72-9.49
			l4.08,2.86c-2.72,5.85-6.33,11.64-10.82,17.35c-4.49,5.72-9.56,10.48-15.21,14.29c-5.65,3.81-11.54,5.72-17.66,5.72
			c-5.04,0-9.16-1.36-12.35-4.08c-3.2-2.72-4.8-6.19-4.8-10.41c0-3.95,0.88-8.1,2.66-12.45c1.77-4.35,3.54-8.58,5.31-12.66
			c1.77-4.08,2.66-7.76,2.66-11.02c0-3.54-1.16-6.43-3.47-8.68c-2.32-2.25-4.77-4.05-7.35-5.41c-1.63,4.9-3.44,9.94-5.41,15.11
			c-1.97,5.17-4.39,9.9-7.25,14.19c-2.86,4.29-6.47,7.76-10.82,10.41c-4.36,2.65-9.8,3.98-16.33,3.98c-1.77,0-3.78-0.27-6.02-0.82
			c-2.25-0.54-4.12-1.09-5.61-1.63c-3.68,7.22-8.47,13.1-14.39,17.66C737.28,353.79,731.39,356.08,725.54,356.08z M729.42,345.87
			c1.77,0,3.98-0.88,6.63-2.65c2.66-1.77,5.31-4.11,7.96-7.04c2.65-2.93,4.73-6.02,6.23-9.29c-2.86-3.81-4.29-9.53-4.29-17.15
			c0-1.63,0.23-3.81,0.71-6.53c0.48-2.72,1.16-5.54,2.04-8.47c0.88-2.93,1.94-5.41,3.16-7.45c-2.72,2.59-5.48,5.48-8.27,8.68
			c-2.79,3.2-5.41,6.53-7.86,10c-2.45,3.47-4.63,6.94-6.53,10.41c-1.91,3.47-3.4,6.88-4.49,10.21c-1.09,3.34-1.63,6.5-1.63,9.49
			c0,3.68,0.58,6.23,1.74,7.66C725.98,345.15,727.51,345.87,729.42,345.87z"/>
		<path class="st0" d="M871.51,406.71c-3.4,0-6.57-1.06-9.49-3.16c-2.93-2.11-4.39-5.48-4.39-10.11c0-4.36,1.3-8.27,3.88-11.74
			c2.58-3.47,5.92-6.67,10-9.6c4.08-2.93,8.47-5.58,13.17-7.96c4.69-2.38,9.22-4.59,13.58-6.63c1.5-3.95,3.16-8.95,5-15.01
			c1.84-6.05,3.43-11.67,4.8-16.84c-4.22,5.85-8.71,11.03-13.48,15.52c-4.77,4.49-10.07,6.74-15.93,6.74
			c-2.45,0-5.04-0.51-7.76-1.53c-2.72-1.02-5-2.79-6.84-5.31c-1.84-2.52-2.76-5.89-2.76-10.11c0-3.54,0.65-7.83,1.94-12.86
			c1.29-5.03,2.93-9.97,4.9-14.8c1.97-4.83,4.05-8.85,6.23-12.05c2.18-3.2,4.08-4.8,5.72-4.8c0.82,0,2.01,0.31,3.57,0.92
			c1.56,0.61,3.1,1.43,4.59,2.45c1.5,1.02,2.45,2.14,2.86,3.37c-1.23,1.63-2.59,3.98-4.08,7.04c-1.5,3.06-2.93,6.47-4.29,10.21
			c-1.36,3.75-2.49,7.38-3.37,10.92c-0.89,3.54-1.33,6.6-1.33,9.19c0,2.04,0.41,3.81,1.23,5.31c0.82,1.5,2.38,2.25,4.7,2.25
			c2.99,0,6.09-1.22,9.29-3.67c3.2-2.45,6.33-5.58,9.39-9.39c3.06-3.81,5.82-7.69,8.27-11.64c0.27-0.95,0.54-2.45,0.82-4.49
			c0.27-2.04,0.75-4.15,1.43-6.33c0.68-2.31,1.87-4.42,3.57-6.33c1.7-1.9,4.11-2.86,7.25-2.86c1.09,0,2.11,0.07,3.06,0.2
			c0.95,0.14,2.11,0.34,3.47,0.61c0,2.04-0.71,6.02-2.14,11.94c-1.43,5.92-3.3,12.76-5.61,20.52c-2.32,7.76-4.9,15.52-7.76,23.27
			c5.72-2.31,11.67-6.16,17.87-11.54c6.19-5.38,11.19-13.03,15.01-22.97l3.47,2.86c-2.04,6.81-5.14,12.73-9.29,17.76
			c-4.15,5.04-8.81,9.32-13.98,12.86c-5.17,3.54-10.41,6.46-15.72,8.78c-3.67,8.85-7.66,17.01-11.94,24.5
			c-4.29,7.48-8.81,13.44-13.58,17.86C882.06,404.49,876.96,406.71,871.51,406.71z M869.47,399.15c2.58,0,6.19-2.72,10.82-8.17
			c4.63-5.45,9.32-13.61,14.09-24.5c-4.36,2.18-8.75,4.73-13.17,7.66c-4.42,2.93-8.13,6.02-11.13,9.29c-2.99,3.27-4.49,6.6-4.49,10
			c0,1.36,0.31,2.65,0.92,3.88S868.11,399.15,869.47,399.15z"/>
	</g>
</g>
</svg>
