<?xml version="1.0" encoding="utf-8"?>
<!-- Generator: Adobe Illustrator 26.0.0, SVG Export Plug-In . SVG Version: 6.00 Build 0)  -->
<svg version="1.1" id="Layer_1" xmlns="http://www.w3.org/2000/svg" xmlns:xlink="http://www.w3.org/1999/xlink" x="0px" y="0px"
	 viewBox="0 0 1080 1080" style="enable-background:new 0 0 1080 1080;" xml:space="preserve">
<style type="text/css">
	.st0{fill:#5B4029;}
	.st1{clip-path:url(#SVGID_00000023963327702944503230000017268289596226170008_);}
	.st2{fill:#DE922E;}
	.st3{fill:#E7AE4B;}
	.st4{fill:#D6DB3D;}
	.st5{fill:#838C36;}
	.st6{fill:#F3A61E;}
</style>
<g>
	<path class="st0" d="M243.84,446.03l-92.68,92.68l92.68,92.68l92.68-92.68L243.84,446.03z M243.84,589.35
		c-27.96,0-50.65-22.68-50.65-50.65c0-27.98,22.68-50.65,50.65-50.65c27.98,0,50.65,22.67,50.65,50.65
		C294.49,566.67,271.82,589.35,243.84,589.35z"/>
	<g>
		<defs>
			<path id="SVGID_1_" d="M294.49,538.7c0,27.97-22.68,50.64-50.65,50.64c-27.97,0-50.65-22.67-50.65-50.64
				c0-5.24-56.21-26.8-54.73-35.27c6.41-36.64,82.65-82.83,105.38-82.83c19.59,0,98.97,25.77,107.39,61.07
				C354.83,496.78,294.49,530.32,294.49,538.7z"/>
		</defs>
		<clipPath id="SVGID_00000021831268717677587240000008712946946644818319_">
			<use xlink:href="#SVGID_1_"  style="overflow:visible;"/>
		</clipPath>
		<g style="clip-path:url(#SVGID_00000021831268717677587240000008712946946644818319_);">
			<g>
				<path class="st2" d="M242.36,627.89C242.35,627.89,242.35,627.89,242.36,627.89c-0.58,0-1.03-0.46-1.03-1.04l1.27-185.21
					c0-0.56,0.46-1.02,1.03-1.02c0,0,0.01,0,0.01,0c0.57,0,1.02,0.46,1.02,1.03l-1.27,185.21
					C243.38,627.44,242.92,627.89,242.36,627.89z"/>
			</g>
			<g>
				<path class="st2" d="M251.19,447.34c-1.59-5.84-5.52-10.39-6.9-15.86c-0.43-2.36,0.23-5.25,0.23-5.25h0
					c0.06-0.31,0.09-0.65,0.09-1.01c0.01-1.32-0.38-2.39-0.85-2.39c-0.48,0-0.88,1.06-0.89,2.38c0,0.36,0.03,0.7,0.08,1.01h0
					c0,0,0.63,2.89,0.16,5.24c-1.45,5.46-5.45,9.95-7.12,15.77c-1.83,6.38-0.87,20.07,7.14,20.12l0.64,0.01
					C251.78,467.41,252.93,453.74,251.19,447.34z"/>
			</g>
			<g>
				<path class="st2" d="M263.69,474.22c3.01-5.25,3.43-11.25,6.33-16.09c1.36-1.97,3.88-3.55,3.88-3.55l0,0
					c0.25-0.18,0.52-0.39,0.77-0.65c0.94-0.93,1.43-1.95,1.09-2.3c-0.34-0.34-1.37,0.13-2.31,1.06c-0.26,0.26-0.48,0.51-0.66,0.77h0
					c0,0-1.6,2.49-3.59,3.82c-4.88,2.83-10.89,3.18-16.18,6.12c-5.81,3.22-14.8,13.57-9.18,19.28l0.45,0.46
					C249.91,488.84,260.39,479.99,263.69,474.22z"/>
			</g>
			<g>
				<path class="st3" d="M223.27,473.95c-2.94-5.3-3.28-11.3-6.11-16.18c-1.34-1.99-3.83-3.6-3.83-3.6l0,0
					c-0.26-0.18-0.52-0.4-0.77-0.66c-0.93-0.94-1.4-1.98-1.06-2.31c0.34-0.34,1.37,0.15,2.3,1.09c0.25,0.26,0.47,0.52,0.65,0.78l0,0
					c0,0,1.57,2.51,3.54,3.87c4.85,2.9,10.85,3.33,16.1,6.34c5.76,3.3,14.62,13.78,8.91,19.4l-0.46,0.45
					C236.84,488.75,226.48,479.75,223.27,473.95z"/>
			</g>
			<g>
				<path class="st3" d="M263.52,499.19c3.01-5.25,3.44-11.25,6.33-16.09c1.36-1.97,3.87-3.54,3.87-3.54l0,0
					c0.26-0.18,0.52-0.39,0.77-0.65c0.94-0.92,1.43-1.96,1.09-2.3c-0.34-0.35-1.38,0.13-2.31,1.06c-0.26,0.25-0.48,0.51-0.66,0.77
					l0,0c0,0-1.6,2.49-3.59,3.82c-4.88,2.83-10.88,3.18-16.18,6.12c-5.81,3.22-14.8,13.58-9.18,19.28l0.45,0.46
					C249.74,513.81,260.22,504.96,263.52,499.19z"/>
			</g>
			<g>
				<path class="st2" d="M223.09,498.92c-2.94-5.29-3.28-11.3-6.11-16.18c-1.33-1.99-3.83-3.6-3.83-3.6l0,0
					c-0.26-0.18-0.51-0.4-0.77-0.66c-0.93-0.94-1.4-1.97-1.06-2.31c0.34-0.34,1.37,0.15,2.3,1.09c0.25,0.26,0.47,0.52,0.65,0.78l0,0
					c0,0,1.57,2.51,3.54,3.87c4.84,2.9,10.84,3.33,16.1,6.34c5.76,3.3,14.62,13.78,8.91,19.4l-0.46,0.45
					C236.67,513.72,226.31,504.72,223.09,498.92z"/>
			</g>
			<g>
				<path class="st2" d="M263.35,524.16c3.01-5.26,3.43-11.25,6.33-16.09c1.36-1.97,3.87-3.55,3.87-3.55h0
					c0.25-0.18,0.52-0.39,0.77-0.65c0.94-0.93,1.43-1.96,1.09-2.29c-0.34-0.34-1.38,0.13-2.31,1.06c-0.25,0.25-0.48,0.51-0.66,0.77
					l0,0c0,0-1.6,2.49-3.59,3.82c-4.88,2.83-10.88,3.18-16.18,6.12c-5.81,3.22-14.8,13.58-9.18,19.28l0.45,0.46
					C249.57,538.78,260.05,529.92,263.35,524.16z"/>
			</g>
			<g>
				<path class="st3" d="M222.92,523.88c-2.93-5.29-3.28-11.29-6.11-16.18c-1.33-1.99-3.83-3.6-3.83-3.6h0
					c-0.25-0.18-0.51-0.4-0.77-0.66c-0.92-0.94-1.4-1.98-1.06-2.31c0.34-0.34,1.37,0.15,2.3,1.09c0.25,0.26,0.47,0.52,0.65,0.78h0
					c0,0,1.57,2.51,3.54,3.87c4.84,2.9,10.84,3.33,16.1,6.34c5.76,3.3,14.62,13.78,8.91,19.4l-0.46,0.46
					C236.5,538.69,226.14,529.69,222.92,523.88z"/>
			</g>
			<g>
				<path class="st3" d="M263.18,549.13c3.01-5.26,3.44-11.25,6.34-16.09c1.36-1.98,3.87-3.54,3.87-3.54h0
					c0.26-0.18,0.52-0.4,0.78-0.65c0.94-0.93,1.43-1.95,1.09-2.3c-0.34-0.34-1.38,0.13-2.31,1.06c-0.26,0.26-0.48,0.52-0.66,0.77h0
					c0,0-1.6,2.49-3.59,3.82c-4.88,2.83-10.89,3.18-16.18,6.12c-5.81,3.22-14.8,13.57-9.18,19.28l0.45,0.46
					C249.4,563.75,259.88,554.89,263.18,549.13z"/>
			</g>
			<g>
				<path class="st2" d="M222.75,548.85c-2.94-5.29-3.28-11.29-6.11-16.17c-1.33-2-3.83-3.6-3.83-3.6h0
					c-0.26-0.18-0.51-0.4-0.77-0.66c-0.93-0.94-1.4-1.98-1.06-2.31c0.34-0.34,1.37,0.15,2.3,1.09c0.25,0.26,0.47,0.52,0.65,0.78h0
					c0,0,1.57,2.51,3.54,3.87c4.85,2.9,10.84,3.33,16.1,6.34c5.76,3.3,14.61,13.78,8.91,19.4l-0.46,0.45
					C236.33,563.66,225.97,554.66,222.75,548.85z"/>
			</g>
			<g>
				<path class="st2" d="M263.01,574.1c3.01-5.26,3.43-11.25,6.33-16.09c1.36-1.97,3.87-3.55,3.87-3.55l0,0
					c0.26-0.18,0.52-0.39,0.78-0.65c0.94-0.92,1.43-1.95,1.09-2.3c-0.34-0.34-1.38,0.13-2.31,1.06c-0.25,0.26-0.47,0.52-0.66,0.77
					l0,0c0,0-1.6,2.49-3.59,3.82c-4.89,2.83-10.89,3.18-16.19,6.12c-5.81,3.22-14.8,13.58-9.18,19.28l0.45,0.46
					C249.23,588.71,259.71,579.86,263.01,574.1z"/>
			</g>
			<g>
				<path class="st3" d="M222.58,573.82c-2.93-5.29-3.28-11.29-6.11-16.18c-1.33-2-3.83-3.6-3.83-3.6h0
					c-0.25-0.18-0.51-0.4-0.77-0.66c-0.93-0.94-1.4-1.98-1.06-2.31c0.34-0.34,1.37,0.15,2.3,1.09c0.25,0.26,0.47,0.52,0.65,0.78h0
					c0,0,1.57,2.51,3.54,3.87c4.84,2.9,10.84,3.33,16.1,6.34c5.76,3.3,14.61,13.78,8.91,19.4l-0.46,0.45
					C236.16,588.62,225.8,579.63,222.58,573.82z"/>
			</g>
		</g>
		<g style="clip-path:url(#SVGID_00000021831268717677587240000008712946946644818319_);">
			<path class="st4" d="M147.15,504.08c0,0,154.45-17.84,88.98,195.47l-8.03-1.29C228.1,698.26,258.16,544.09,147.15,504.08z"/>
			<path class="st5" d="M348.01,484.02c0,0-154.45-17.84-88.98,195.47l8.03-1.29C267.06,678.2,237,524.03,348.01,484.02z"/>
		</g>
	</g>
</g>
<g>
	<path class="st6" d="M505.01,577.23h16.71v32.06c-8.69,6.55-20.66,10.05-31.95,10.05c-24.83,0-43.12-17.05-43.12-40.86
		s18.29-40.86,43.46-40.86c13.89,0,25.4,4.74,33.08,13.66l-11.74,10.84c-5.76-6.1-12.42-8.92-20.43-8.92
		c-15.35,0-25.85,10.27-25.85,25.29c0,14.79,10.5,25.29,25.63,25.29c4.97,0,9.6-0.9,14.22-3.39V577.23z"/>
	<path class="st6" d="M561.21,538.96h18.29v64.12h39.62v14.9h-57.91V538.96z"/>
	<path class="st6" d="M645.64,578.47c0-23.48,18.29-40.86,43.24-40.86c24.84,0,43.24,17.27,43.24,40.86s-18.4,40.86-43.24,40.86
		C663.93,619.34,645.64,601.95,645.64,578.47z M713.6,578.47c0-15.02-10.61-25.29-24.72-25.29c-14.11,0-24.72,10.27-24.72,25.29
		c0,15.01,10.61,25.29,24.72,25.29C702.99,603.76,713.6,593.49,713.6,578.47z"/>
	<path class="st6" d="M818.79,617.98l-15.24-22.01h-0.9h-15.92v22.01h-18.29v-79.02h34.21c21.11,0,34.32,10.95,34.32,28.67
		c0,11.85-5.98,20.55-16.26,24.95l17.72,25.4H818.79z M801.63,553.86h-14.9v27.55h14.9c11.18,0,16.82-5.19,16.82-13.77
		C818.45,558.94,812.81,553.86,801.63,553.86z"/>
	<path class="st6" d="M910.78,589.99v28h-18.29v-28.22l-30.59-50.8h19.42l21.11,35.11l21.11-35.11h17.95L910.78,589.99z"/>
</g>
<g>
	<path class="st4" d="M574.14,487.45h5.46V508c-5.08,4.54-12.31,6.85-19.78,6.85c-16.39,0-28.39-11.62-28.39-27.4
		c0-15.77,12-27.39,28.47-27.39c8.16,0,15.24,2.62,20.01,7.77l-3.54,3.62c-4.54-4.46-9.93-6.31-16.24-6.31
		c-13.31,0-23.09,9.46-23.09,22.32c0,12.78,9.77,22.32,23.01,22.32c5.16,0,9.93-1.15,14.08-4.16V487.45z"/>
	<path class="st4" d="M647.86,514.39l-12.31-17.31c-1.39,0.16-2.77,0.23-4.31,0.23h-14.47v17.08h-5.69v-53.87h20.16
		c13.7,0,22.01,6.93,22.01,18.47c0,8.46-4.46,14.39-12.31,16.93l13.16,18.47H647.86z M647.55,478.99c0-8.62-5.69-13.54-16.47-13.54
		h-14.31v27.01h14.31C641.85,492.46,647.55,487.45,647.55,478.99z"/>
	<path class="st4" d="M715.88,500h-30.01l-6.46,14.39h-5.93l24.62-53.87h5.62l24.62,53.87h-6L715.88,500z M713.8,495.38
		l-12.93-28.93l-12.93,28.93H713.8z"/>
	<path class="st4" d="M752.66,460.52h5.69v53.87h-5.69V460.52z"/>
	<path class="st4" d="M836.31,460.52v53.87h-4.69l-34.63-43.71v43.71h-5.69v-53.87h4.69l34.71,43.71v-43.71H836.31z"/>
</g>
</svg>
