<?xml version="1.0" encoding="utf-8"?>
<!-- Generator: Adobe Illustrator 26.0.0, SVG Export Plug-In . SVG Version: 6.00 Build 0)  -->
<svg version="1.1" id="Layer_1" xmlns="http://www.w3.org/2000/svg" xmlns:xlink="http://www.w3.org/1999/xlink" x="0px" y="0px"
	 viewBox="0 0 1080 1080" style="enable-background:new 0 0 1080 1080;" xml:space="preserve">
<style type="text/css">
	.st0{fill:#5B4029;}
	.st1{clip-path:url(#SVGID_00000064331892797484936800000011415383134320007336_);}
	.st2{fill:#DE922E;}
	.st3{fill:#E7AE4B;}
	.st4{fill:#D6DB3D;}
	.st5{fill:#838C36;}
</style>
<g>
	<path class="st0" d="M496.56,293.59L210.99,579.15l285.56,285.56l285.56-285.56L496.56,293.59z M496.56,735.21
		c-86.16,0-156.06-69.9-156.06-156.06c0-86.21,69.9-156.06,156.06-156.06c86.21,0,156.06,69.85,156.06,156.06
		C652.61,665.31,582.76,735.21,496.56,735.21z"/>
	<g>
		<defs>
			<path id="SVGID_1_" d="M652.61,579.15c0,86.18-69.87,156.04-156.05,156.04c-86.18,0-156.05-69.86-156.05-156.04
				c0-16.16-173.2-82.59-168.64-108.66c19.76-112.89,254.66-255.21,324.69-255.21c60.36,0,304.94,79.4,330.9,188.18
				C838.56,449.98,652.61,553.33,652.61,579.15z"/>
		</defs>
		<clipPath id="SVGID_00000173868465514774889110000008734850403120660915_">
			<use xlink:href="#SVGID_1_"  style="overflow:visible;"/>
		</clipPath>
		<g style="clip-path:url(#SVGID_00000173868465514774889110000008734850403120660915_);">
			<g>
				<path class="st2" d="M491.99,853.96c-0.01,0-0.01,0-0.02,0c-1.75,0-3.16-1.43-3.14-3.19l3.92-570.66
					c0.01-1.73,1.42-3.14,3.16-3.14c0.01,0,0.02,0,0.02,0c1.76,0,3.16,1.43,3.15,3.19l-3.91,570.66
					C495.14,852.55,493.73,853.96,491.99,853.96z"/>
			</g>
			<g>
				<path class="st2" d="M519.2,297.63c-4.89-18-17.02-32-21.26-48.86c-1.34-7.26,0.71-16.17,0.71-16.17h0
					c0.17-0.95,0.28-2,0.28-3.1c0.03-4.06-1.16-7.37-2.63-7.38c-1.48-0.01-2.71,3.28-2.73,7.35c0,1.11,0.08,2.15,0.23,3.1h0
					c0,0,1.93,8.91,0.5,16.14c-4.46,16.83-16.79,30.66-21.93,48.6c-5.64,19.67-2.68,61.83,22,62l1.98,0.02
					C521.03,359.48,524.57,317.37,519.2,297.63z"/>
			</g>
			<g>
				<path class="st2" d="M557.72,380.47c9.27-16.19,10.58-34.65,19.51-49.58c4.19-6.08,11.94-10.93,11.94-10.93l0,0
					c0.78-0.56,1.6-1.22,2.39-2c2.89-2.85,4.4-6.02,3.36-7.08c-1.04-1.06-4.23,0.4-7.12,3.25c-0.79,0.79-1.47,1.59-2.03,2.36h-0.01
					c0,0-4.93,7.67-11.07,11.78c-15.04,8.73-33.54,9.79-49.86,18.85c-17.89,9.91-45.61,41.83-28.28,59.4l1.4,1.41
					C515.27,425.51,547.55,398.23,557.72,380.47z"/>
			</g>
			<g>
				<path class="st3" d="M433.17,379.62c-9.05-16.32-10.11-34.8-18.83-49.85c-4.11-6.13-11.79-11.09-11.79-11.09l0.01-0.01
					c-0.79-0.55-1.59-1.23-2.37-2.02c-2.85-2.9-4.31-6.09-3.26-7.12c1.06-1.04,4.23,0.46,7.08,3.35c0.78,0.8,1.45,1.61,2,2.4
					l0.01-0.01c0,0,4.82,7.73,10.9,11.93c14.93,8.94,33.42,10.26,49.61,19.53c17.76,10.16,45.03,42.45,27.46,59.78l-1.41,1.4
					C475,425.23,443.08,397.51,433.17,379.62z"/>
			</g>
			<g>
				<path class="st3" d="M557.19,457.41c9.27-16.19,10.59-34.67,19.52-49.59c4.19-6.07,11.94-10.92,11.94-10.92l0-0.01
					c0.79-0.54,1.6-1.21,2.38-1.99c2.9-2.84,4.41-6.03,3.37-7.07c-1.04-1.06-4.24,0.41-7.12,3.26c-0.79,0.78-1.47,1.58-2.03,2.36
					l-0.01-0.01c0,0-4.93,7.67-11.07,11.77c-15.04,8.72-33.54,9.79-49.86,18.85c-17.89,9.93-45.61,41.83-28.28,59.39l1.4,1.43
					C514.74,502.44,547.03,475.17,557.19,457.41z"/>
			</g>
			<g>
				<path class="st2" d="M432.64,456.56c-9.05-16.31-10.1-34.81-18.83-49.85c-4.11-6.14-11.79-11.09-11.79-11.09l0.01-0.01
					c-0.79-0.55-1.59-1.23-2.37-2.03c-2.85-2.89-4.32-6.07-3.26-7.11c1.06-1.05,4.23,0.46,7.08,3.35c0.78,0.8,1.44,1.6,1.99,2.4
					l0.01-0.01c0,0,4.83,7.74,10.9,11.93c14.93,8.93,33.41,10.25,49.61,19.53c17.76,10.16,45.04,42.45,27.46,59.79l-1.41,1.4
					C474.47,502.16,442.55,474.45,432.64,456.56z"/>
			</g>
			<g>
				<path class="st2" d="M556.67,534.35c9.27-16.19,10.58-34.67,19.52-49.59c4.19-6.08,11.94-10.93,11.94-10.93h0
					c0.78-0.55,1.6-1.21,2.39-2c2.89-2.86,4.4-6.03,3.36-7.07c-1.05-1.06-4.24,0.39-7.13,3.25c-0.78,0.78-1.47,1.58-2.03,2.36
					l0-0.01c0,0-4.94,7.67-11.07,11.78c-15.05,8.73-33.54,9.8-49.86,18.85c-17.89,9.92-45.61,41.83-28.27,59.39l1.39,1.42
					C514.22,579.37,546.5,552.09,556.67,534.35z"/>
			</g>
			<g>
				<path class="st3" d="M432.11,533.49c-9.04-16.31-10.11-34.8-18.83-49.85c-4.11-6.14-11.79-11.09-11.79-11.09h0.01
					c-0.78-0.56-1.59-1.23-2.37-2.02c-2.85-2.89-4.31-6.09-3.26-7.12c1.06-1.04,4.24,0.45,7.09,3.36c0.78,0.8,1.44,1.6,1.99,2.39
					h0.01c0,0,4.82,7.73,10.91,11.92c14.92,8.95,33.41,10.26,49.6,19.53c17.76,10.17,45.04,42.45,27.47,59.78l-1.42,1.4
					C473.94,579.1,442.03,551.38,432.11,533.49z"/>
			</g>
			<g>
				<path class="st3" d="M556.14,611.28c9.27-16.2,10.59-34.66,19.52-49.59c4.18-6.09,11.93-10.92,11.93-10.92h0
					c0.79-0.56,1.6-1.22,2.39-2c2.89-2.86,4.4-6.02,3.36-7.08c-1.05-1.06-4.24,0.41-7.13,3.25c-0.79,0.79-1.46,1.59-2.02,2.37h0
					c0,0-4.94,7.67-11.07,11.78c-15.05,8.73-33.54,9.79-49.87,18.85c-17.89,9.92-45.61,41.83-28.27,59.4l1.39,1.42
					C513.69,656.31,545.98,629.03,556.14,611.28z"/>
			</g>
			<g>
				<path class="st2" d="M431.58,610.41c-9.05-16.3-10.11-34.79-18.83-49.83c-4.11-6.15-11.79-11.1-11.79-11.1h0
					c-0.79-0.56-1.59-1.24-2.36-2.03c-2.86-2.9-4.32-6.09-3.26-7.11c1.06-1.05,4.23,0.45,7.08,3.34c0.78,0.79,1.44,1.61,2,2.39h0.01
					c0,0,4.83,7.73,10.9,11.92c14.93,8.93,33.41,10.27,49.61,19.53c17.75,10.17,45.03,42.47,27.46,59.78l-1.42,1.4
					C473.41,656.04,441.5,628.3,431.58,610.41z"/>
			</g>
			<g>
				<path class="st2" d="M555.61,688.21c9.27-16.2,10.58-34.66,19.51-49.59c4.19-6.08,11.93-10.92,11.93-10.92l0,0
					c0.79-0.55,1.6-1.22,2.39-2c2.89-2.85,4.4-6.02,3.36-7.08c-1.05-1.05-4.24,0.4-7.13,3.25c-0.78,0.79-1.46,1.59-2.03,2.36l0,0
					c0,0-4.94,7.66-11.07,11.77c-15.05,8.73-33.54,9.8-49.87,18.86c-17.89,9.92-45.61,41.83-28.27,59.39l1.39,1.42
					C513.16,733.23,545.45,705.96,555.61,688.21z"/>
			</g>
			<g>
				<path class="st3" d="M431.06,687.35c-9.04-16.3-10.1-34.8-18.83-49.84c-4.1-6.15-11.79-11.09-11.79-11.09h0.01
					c-0.78-0.57-1.59-1.24-2.36-2.03c-2.85-2.89-4.32-6.09-3.27-7.12c1.06-1.03,4.23,0.47,7.08,3.36c0.78,0.8,1.45,1.6,2,2.39h0.01
					c0,0,4.83,7.72,10.91,11.92c14.92,8.94,33.41,10.26,49.61,19.53c17.75,10.16,45.03,42.45,27.46,59.79l-1.42,1.39
					C472.89,732.97,440.97,705.24,431.06,687.35z"/>
			</g>
		</g>
		<g style="clip-path:url(#SVGID_00000173868465514774889110000008734850403120660915_);">
			<path class="st4" d="M198.63,472.47c0,0,475.89-54.96,274.16,602.29l-24.74-3.99C448.05,1070.78,540.67,595.76,198.63,472.47z"/>
			<path class="st5" d="M817.52,410.67c0,0-475.89-54.96-274.16,602.29l24.75-3.98C568.1,1008.97,475.48,533.95,817.52,410.67z"/>
		</g>
	</g>
</g>
</svg>
